<svg width="268" height="47" viewBox="0 0 268 47" fill="none" xmlns="http://www.w3.org/2000/svg">
<g filter="url(#filter0_i_284_752)">
<mask id="path-1-outside-1_284_752" maskUnits="userSpaceOnUse" x="118" y="5" width="148" height="37" fill="black">
<rect fill="white" x="118" y="5" width="148" height="37"/>
<path d="M123.722 12.92V19.184H146.78V24.368H123.722V41H118.538V12.92H123.722ZM150.29 10.328H118.538V5.144H150.29V10.328ZM170.428 10.274C163.354 10.274 157.63 16.052 157.63 23.072C157.63 30.146 163.354 35.87 170.428 35.87C177.448 35.87 183.172 30.146 183.172 23.072C183.172 16.052 177.448 10.274 170.428 10.274ZM152.446 23.072C152.446 13.136 160.492 5.144 170.428 5.144C180.31 5.144 188.356 13.136 188.356 23.072C188.356 33.008 180.31 41 170.428 41C160.492 41 152.446 33.008 152.446 23.072ZM209.663 10.274C202.589 10.274 196.865 16.052 196.865 23.072C196.865 30.146 202.589 35.87 209.663 35.87C216.683 35.87 222.407 30.146 222.407 23.072C222.407 16.052 216.683 10.274 209.663 10.274ZM191.681 23.072C191.681 13.136 199.727 5.144 209.663 5.144C219.545 5.144 227.591 13.136 227.591 23.072C227.591 33.008 219.545 41 209.663 41C199.727 41 191.681 33.008 191.681 23.072ZM264.838 20.642C264.946 21.452 265 22.316 265 23.18C265 24.044 264.946 24.962 264.838 25.826C263.65 33.764 257.278 40.028 249.232 41H232.708V12.92H237.892V35.87H248.854C254.2 35.06 258.466 31.01 259.546 25.826C259.762 24.962 259.87 24.044 259.87 23.18C259.87 22.316 259.762 21.452 259.6 20.642C258.952 17.51 257.224 14.81 254.74 12.92C252.742 11.408 250.258 10.49 247.558 10.328H232.708V5.144H247.234C256.198 5.252 263.596 11.948 264.838 20.642Z"/>
</mask>
<path d="M123.722 12.92V19.184H146.78V24.368H123.722V41H118.538V12.92H123.722ZM150.29 10.328H118.538V5.144H150.29V10.328ZM170.428 10.274C163.354 10.274 157.63 16.052 157.63 23.072C157.63 30.146 163.354 35.87 170.428 35.87C177.448 35.87 183.172 30.146 183.172 23.072C183.172 16.052 177.448 10.274 170.428 10.274ZM152.446 23.072C152.446 13.136 160.492 5.144 170.428 5.144C180.31 5.144 188.356 13.136 188.356 23.072C188.356 33.008 180.31 41 170.428 41C160.492 41 152.446 33.008 152.446 23.072ZM209.663 10.274C202.589 10.274 196.865 16.052 196.865 23.072C196.865 30.146 202.589 35.87 209.663 35.87C216.683 35.87 222.407 30.146 222.407 23.072C222.407 16.052 216.683 10.274 209.663 10.274ZM191.681 23.072C191.681 13.136 199.727 5.144 209.663 5.144C219.545 5.144 227.591 13.136 227.591 23.072C227.591 33.008 219.545 41 209.663 41C199.727 41 191.681 33.008 191.681 23.072ZM264.838 20.642C264.946 21.452 265 22.316 265 23.18C265 24.044 264.946 24.962 264.838 25.826C263.65 33.764 257.278 40.028 249.232 41H232.708V12.92H237.892V35.87H248.854C254.2 35.06 258.466 31.01 259.546 25.826C259.762 24.962 259.87 24.044 259.87 23.18C259.87 22.316 259.762 21.452 259.6 20.642C258.952 17.51 257.224 14.81 254.74 12.92C252.742 11.408 250.258 10.49 247.558 10.328H232.708V5.144H247.234C256.198 5.252 263.596 11.948 264.838 20.642Z" fill="#13D0C5"/>
<path d="M123.722 12.92H123.822V12.82H123.722V12.92ZM123.722 19.184H123.622V19.284H123.722V19.184ZM146.78 19.184H146.88V19.084H146.78V19.184ZM146.78 24.368V24.468H146.88V24.368H146.78ZM123.722 24.368V24.268H123.622V24.368H123.722ZM123.722 41V41.1H123.822V41H123.722ZM118.538 41H118.438V41.1H118.538V41ZM118.538 12.92V12.82H118.438V12.92H118.538ZM150.29 10.328V10.428H150.39V10.328H150.29ZM118.538 10.328H118.438V10.428H118.538V10.328ZM118.538 5.144V5.044H118.438V5.144H118.538ZM150.29 5.144H150.39V5.044H150.29V5.144ZM123.622 12.92V19.184H123.822V12.92H123.622ZM123.722 19.284H146.78V19.084H123.722V19.284ZM146.68 19.184V24.368H146.88V19.184H146.68ZM146.78 24.268H123.722V24.468H146.78V24.268ZM123.622 24.368V41H123.822V24.368H123.622ZM123.722 40.9H118.538V41.1H123.722V40.9ZM118.638 41V12.92H118.438V41H118.638ZM118.538 13.02H123.722V12.82H118.538V13.02ZM150.29 10.228H118.538V10.428H150.29V10.228ZM118.638 10.328V5.144H118.438V10.328H118.638ZM118.538 5.244H150.29V5.044H118.538V5.244ZM150.19 5.144V10.328H150.39V5.144H150.19ZM170.428 10.174C163.299 10.174 157.53 15.997 157.53 23.072H157.73C157.73 16.107 163.41 10.374 170.428 10.374V10.174ZM157.53 23.072C157.53 30.2012 163.299 35.97 170.428 35.97V35.77C163.409 35.77 157.73 30.0908 157.73 23.072H157.53ZM170.428 35.97C177.504 35.97 183.272 30.201 183.272 23.072H183.072C183.072 30.091 177.393 35.77 170.428 35.77V35.97ZM183.272 23.072C183.272 15.9973 177.504 10.174 170.428 10.174V10.374C177.392 10.374 183.072 16.1067 183.072 23.072H183.272ZM152.546 23.072C152.546 13.1916 160.547 5.244 170.428 5.244V5.044C160.437 5.044 152.346 13.0804 152.346 23.072H152.546ZM170.428 5.244C180.255 5.244 188.256 13.1914 188.256 23.072H188.456C188.456 13.0806 180.365 5.044 170.428 5.044V5.244ZM188.256 23.072C188.256 32.9526 180.255 40.9 170.428 40.9V41.1C180.365 41.1 188.456 33.0634 188.456 23.072H188.256ZM170.428 40.9C160.547 40.9 152.546 32.9524 152.546 23.072H152.346C152.346 33.0636 160.437 41.1 170.428 41.1V40.9ZM209.663 10.174C202.533 10.174 196.765 15.997 196.765 23.072H196.965C196.965 16.107 202.644 10.374 209.663 10.374V10.174ZM196.765 23.072C196.765 30.2012 202.533 35.97 209.663 35.97V35.77C202.644 35.77 196.965 30.0908 196.965 23.072H196.765ZM209.663 35.97C216.738 35.97 222.507 30.201 222.507 23.072H222.307C222.307 30.091 216.627 35.77 209.663 35.77V35.97ZM222.507 23.072C222.507 15.9973 216.738 10.174 209.663 10.174V10.374C216.627 10.374 222.307 16.1067 222.307 23.072H222.507ZM191.781 23.072C191.781 13.1916 199.781 5.244 209.663 5.244V5.044C199.672 5.044 191.581 13.0804 191.581 23.072H191.781ZM209.663 5.244C219.49 5.244 227.491 13.1914 227.491 23.072H227.691C227.691 13.0806 219.6 5.044 209.663 5.044V5.244ZM227.491 23.072C227.491 32.9526 219.49 40.9 209.663 40.9V41.1C219.6 41.1 227.691 33.0634 227.691 23.072H227.491ZM209.663 40.9C199.781 40.9 191.781 32.9524 191.781 23.072H191.581C191.581 33.0636 199.672 41.1 209.663 41.1V40.9ZM264.838 20.642L264.937 20.6288L264.937 20.6279L264.838 20.642ZM264.838 25.826L264.937 25.8408L264.937 25.8384L264.838 25.826ZM249.232 41V41.1007L249.244 41.0993L249.232 41ZM232.708 41H232.608V41.1H232.708V41ZM232.708 12.92V12.82H232.608V12.92H232.708ZM237.892 12.92H237.992V12.82H237.892V12.92ZM237.892 35.87H237.792V35.97H237.892V35.87ZM248.854 35.87V35.97H248.861L248.869 35.9689L248.854 35.87ZM259.546 25.826L259.449 25.8017L259.448 25.8056L259.546 25.826ZM259.6 20.642L259.698 20.6224L259.698 20.6217L259.6 20.642ZM254.74 12.92L254.8 12.8404L254.8 12.8403L254.74 12.92ZM247.558 10.328L247.564 10.228H247.558V10.328ZM232.708 10.328H232.608V10.428H232.708V10.328ZM232.708 5.144V5.044H232.608V5.144H232.708ZM247.234 5.144L247.235 5.044H247.234V5.144ZM264.739 20.6552C264.846 21.4605 264.9 22.32 264.9 23.18H265.1C265.1 22.312 265.046 21.4435 264.937 20.6288L264.739 20.6552ZM264.9 23.18C264.9 24.0401 264.846 24.9539 264.739 25.8136L264.937 25.8384C265.046 24.9701 265.1 24.0479 265.1 23.18H264.9ZM264.739 25.8112C263.558 33.705 257.221 39.9342 249.22 40.9007L249.244 41.0993C257.335 40.1218 263.742 33.823 264.937 25.8408L264.739 25.8112ZM249.232 40.9H232.708V41.1H249.232V40.9ZM232.808 41V12.92H232.608V41H232.808ZM232.708 13.02H237.892V12.82H232.708V13.02ZM237.792 12.92V35.87H237.992V12.92H237.792ZM237.892 35.97H248.854V35.77H237.892V35.97ZM248.869 35.9689C254.256 35.1527 258.555 31.0717 259.644 25.8464L259.448 25.8056C258.377 30.9483 254.144 34.9673 248.839 35.7711L248.869 35.9689ZM259.643 25.8503C259.861 24.9781 259.97 24.0519 259.97 23.18H259.77C259.77 24.0361 259.663 24.9459 259.449 25.8017L259.643 25.8503ZM259.97 23.18C259.97 22.3079 259.861 21.4372 259.698 20.6224L259.502 20.6616C259.663 21.4668 259.77 22.3241 259.77 23.18H259.97ZM259.698 20.6217C259.045 17.4659 257.304 14.7449 254.8 12.8404L254.679 12.9996C257.144 14.8751 258.859 17.5541 259.502 20.6623L259.698 20.6217ZM254.8 12.8403C252.786 11.3159 250.283 10.3913 247.564 10.2282L247.552 10.4278C250.233 10.5887 252.698 11.5001 254.68 12.9997L254.8 12.8403ZM247.558 10.228H232.708V10.428H247.558V10.228ZM232.808 10.328V5.144H232.608V10.328H232.808ZM232.708 5.244H247.234V5.044H232.708V5.244ZM247.233 5.24399C256.146 5.35138 263.504 12.01 264.739 20.6561L264.937 20.6279C263.688 11.886 256.249 5.15261 247.235 5.04401L247.233 5.24399Z" fill="black" mask="url(#path-1-outside-1_284_752)"/>
<mask id="path-3-outside-2_284_752" maskUnits="userSpaceOnUse" x="2" y="4" width="112" height="38" fill="black">
<rect fill="white" x="2" y="4" width="112" height="38"/>
<path d="M2.538 41V15.998L7.722 21.182V41H2.538ZM18.684 21.128L34.56 5.252V41H29.376V17.78L22.302 24.8L20.628 26.474L18.684 28.472L7.722 17.51L2.538 12.326V5.036L18.684 21.128ZM55.9048 10.274C48.8308 10.274 43.1068 16.052 43.1068 23.072C43.1068 30.146 48.8308 35.87 55.9048 35.87C62.9248 35.87 68.6488 30.146 68.6488 23.072C68.6488 16.052 62.9248 10.274 55.9048 10.274ZM37.9228 23.072C37.9228 13.136 45.9688 5.144 55.9048 5.144C65.7868 5.144 73.8328 13.136 73.8328 23.072C73.8328 33.008 65.7868 41 55.9048 41C45.9688 41 37.9228 33.008 37.9228 23.072ZM95.1391 10.274C88.0651 10.274 82.3411 16.052 82.3411 23.072C82.3411 30.146 88.0651 35.87 95.1391 35.87C102.159 35.87 107.883 30.146 107.883 23.072C107.883 16.052 102.159 10.274 95.1391 10.274ZM77.1571 23.072C77.1571 13.136 85.2031 5.144 95.1391 5.144C105.021 5.144 113.067 13.136 113.067 23.072C113.067 33.008 105.021 41 95.1391 41C85.2031 41 77.1571 33.008 77.1571 23.072Z"/>
</mask>
<path d="M2.538 41V15.998L7.722 21.182V41H2.538ZM18.684 21.128L34.56 5.252V41H29.376V17.78L22.302 24.8L20.628 26.474L18.684 28.472L7.722 17.51L2.538 12.326V5.036L18.684 21.128ZM55.9048 10.274C48.8308 10.274 43.1068 16.052 43.1068 23.072C43.1068 30.146 48.8308 35.87 55.9048 35.87C62.9248 35.87 68.6488 30.146 68.6488 23.072C68.6488 16.052 62.9248 10.274 55.9048 10.274ZM37.9228 23.072C37.9228 13.136 45.9688 5.144 55.9048 5.144C65.7868 5.144 73.8328 13.136 73.8328 23.072C73.8328 33.008 65.7868 41 55.9048 41C45.9688 41 37.9228 33.008 37.9228 23.072ZM95.1391 10.274C88.0651 10.274 82.3411 16.052 82.3411 23.072C82.3411 30.146 88.0651 35.87 95.1391 35.87C102.159 35.87 107.883 30.146 107.883 23.072C107.883 16.052 102.159 10.274 95.1391 10.274ZM77.1571 23.072C77.1571 13.136 85.2031 5.144 95.1391 5.144C105.021 5.144 113.067 13.136 113.067 23.072C113.067 33.008 105.021 41 95.1391 41C85.2031 41 77.1571 33.008 77.1571 23.072Z" fill="#965320"/>
<path d="M2.538 41H2.438V41.1H2.538V41ZM2.538 15.998L2.60871 15.9273L2.438 15.7566V15.998H2.538ZM7.722 21.182H7.822V21.1406L7.79271 21.1113L7.722 21.182ZM7.722 41V41.1H7.822V41H7.722ZM18.684 21.128L18.6134 21.1988L18.6841 21.2693L18.7547 21.1987L18.684 21.128ZM34.56 5.252H34.66V5.01058L34.4893 5.18129L34.56 5.252ZM34.56 41V41.1H34.66V41H34.56ZM29.376 41H29.276V41.1H29.376V41ZM29.376 17.78H29.476V17.5399L29.3056 17.709L29.376 17.78ZM22.302 24.8L22.2316 24.729L22.2313 24.7293L22.302 24.8ZM20.628 26.474L20.5573 26.4033L20.5563 26.4043L20.628 26.474ZM18.684 28.472L18.6133 28.5427L18.685 28.6144L18.7557 28.5417L18.684 28.472ZM7.722 17.51L7.79271 17.4393L7.79271 17.4393L7.722 17.51ZM2.538 12.326H2.438V12.3674L2.46729 12.3967L2.538 12.326ZM2.538 5.036L2.60859 4.96517L2.438 4.79515V5.036H2.538ZM2.638 41V15.998H2.438V41H2.638ZM2.46729 16.0687L7.65129 21.2527L7.79271 21.1113L2.60871 15.9273L2.46729 16.0687ZM7.622 21.182V41H7.822V21.182H7.622ZM7.722 40.9H2.538V41.1H7.722V40.9ZM18.7547 21.1987L34.6307 5.32271L34.4893 5.18129L18.6133 21.0573L18.7547 21.1987ZM34.46 5.252V41H34.66V5.252H34.46ZM34.56 40.9H29.376V41.1H34.56V40.9ZM29.476 41V17.78H29.276V41H29.476ZM29.3056 17.709L22.2316 24.729L22.3724 24.871L29.4464 17.851L29.3056 17.709ZM22.2313 24.7293L20.5573 26.4033L20.6987 26.5447L22.3727 24.8707L22.2313 24.7293ZM20.5563 26.4043L18.6123 28.4023L18.7557 28.5417L20.6997 26.5437L20.5563 26.4043ZM18.7547 28.4013L7.79271 17.4393L7.65129 17.5807L18.6133 28.5427L18.7547 28.4013ZM7.79271 17.4393L2.60871 12.2553L2.46729 12.3967L7.65129 17.5807L7.79271 17.4393ZM2.638 12.326V5.036H2.438V12.326H2.638ZM2.46741 5.10683L18.6134 21.1988L18.7546 21.0572L2.60859 4.96517L2.46741 5.10683ZM55.9048 10.174C48.7753 10.174 43.0068 15.997 43.0068 23.072H43.2068C43.2068 16.107 48.8863 10.374 55.9048 10.374V10.174ZM43.0068 23.072C43.0068 30.2012 48.7755 35.97 55.9048 35.97V35.77C48.886 35.77 43.2068 30.0908 43.2068 23.072H43.0068ZM55.9048 35.97C62.9803 35.97 68.7488 30.201 68.7488 23.072H68.5488C68.5488 30.091 62.8693 35.77 55.9048 35.77V35.97ZM68.7488 23.072C68.7488 15.9973 62.9805 10.174 55.9048 10.174V10.374C62.869 10.374 68.5488 16.1067 68.5488 23.072H68.7488ZM38.0228 23.072C38.0228 13.1916 46.0236 5.244 55.9048 5.244V5.044C45.9139 5.044 37.8228 13.0804 37.8228 23.072H38.0228ZM55.9048 5.244C65.7317 5.244 73.7328 13.1914 73.7328 23.072H73.9328C73.9328 13.0806 65.8418 5.044 55.9048 5.044V5.244ZM73.7328 23.072C73.7328 32.9526 65.7317 40.9 55.9048 40.9V41.1C65.8418 41.1 73.9328 33.0634 73.9328 23.072H73.7328ZM55.9048 40.9C46.0236 40.9 38.0228 32.9524 38.0228 23.072H37.8228C37.8228 33.0636 45.9139 41.1 55.9048 41.1V40.9ZM95.1391 10.174C88.0096 10.174 82.2411 15.997 82.2411 23.072H82.4411C82.4411 16.107 88.1206 10.374 95.1391 10.374V10.174ZM82.2411 23.072C82.2411 30.2012 88.0099 35.97 95.1391 35.97V35.77C88.1204 35.77 82.4411 30.0908 82.4411 23.072H82.2411ZM95.1391 35.97C102.215 35.97 107.983 30.201 107.983 23.072H107.783C107.783 30.091 102.104 35.77 95.1391 35.77V35.97ZM107.983 23.072C107.983 15.9973 102.215 10.174 95.1391 10.174V10.374C102.103 10.374 107.783 16.1067 107.783 23.072H107.983ZM77.2571 23.072C77.2571 13.1916 85.258 5.244 95.1391 5.244V5.044C85.1483 5.044 77.0571 13.0804 77.0571 23.072H77.2571ZM95.1391 5.244C104.966 5.244 112.967 13.1914 112.967 23.072H113.167C113.167 13.0806 105.076 5.044 95.1391 5.044V5.244ZM112.967 23.072C112.967 32.9526 104.966 40.9 95.1391 40.9V41.1C105.076 41.1 113.167 33.0634 113.167 23.072H112.967ZM95.1391 40.9C85.258 40.9 77.2571 32.9524 77.2571 23.072H77.0571C77.0571 33.0636 85.1483 41.1 95.1391 41.1V40.9Z" fill="black" mask="url(#path-3-outside-2_284_752)"/>
</g>
<defs>
<filter id="filter0_i_284_752" x="0" y="0" width="272" height="51" filterUnits="userSpaceOnUse" color-interpolation-filters="sRGB">
<feFlood flood-opacity="0" result="BackgroundImageFix"/>
<feBlend mode="normal" in="SourceGraphic" in2="BackgroundImageFix" result="shape"/>
<feColorMatrix in="SourceAlpha" type="matrix" values="0 0 0 0 0 0 0 0 0 0 0 0 0 0 0 0 0 0 127 0" result="hardAlpha"/>
<feOffset dx="4" dy="4"/>
<feGaussianBlur stdDeviation="2"/>
<feComposite in2="hardAlpha" operator="arithmetic" k2="-1" k3="1"/>
<feColorMatrix type="matrix" values="0 0 0 0 0 0 0 0 0 0 0 0 0 0 0 0 0 0 0.25 0"/>
<feBlend mode="normal" in2="shape" result="effect1_innerShadow_284_752"/>
</filter>
</defs>
</svg>
